<svg width="287" height="54" viewBox="0 0 287 54" fill="none" xmlns="http://www.w3.org/2000/svg">
<path d="M7.45031 42V28.464H2.01431V24.396H7.45031V21.408C7.45031 19.68 8.02631 18.3 9.17831 17.268C10.3303 16.236 11.8543 15.72 13.7503 15.72H19.5463V19.68H13.8583C13.2823 19.68 12.8143 19.848 12.4543 20.184C12.1183 20.496 11.9503 20.928 11.9503 21.48V24.396H19.5463V28.464H11.9503V42H7.45031ZM24.6803 42V38.04H31.5203V19.716L24.6443 24.828V20.076L30.6923 15.72H36.0203V38.04H41.5283V42H24.6803ZM46.6262 42V22.2H50.8742V25.98H51.9902L50.6582 28.284C50.6582 26.148 51.1382 24.54 52.0982 23.46C53.0582 22.38 54.4742 21.84 56.3462 21.84C58.4822 21.84 60.1622 22.5 61.3862 23.82C62.6102 25.14 63.2222 26.964 63.2222 29.292V30.732H58.5062V29.616C58.5062 28.344 58.1702 27.36 57.4982 26.664C56.8502 25.968 55.9502 25.62 54.7982 25.62C53.6222 25.62 52.7102 25.968 52.0622 26.664C51.4382 27.36 51.1262 28.344 51.1262 29.616V42H46.6262ZM74.8721 42.324C73.3601 42.324 72.0401 42.084 70.9121 41.604C69.7841 41.124 68.8961 40.464 68.2481 39.624C67.6241 38.76 67.2881 37.752 67.2401 36.6H71.7401C71.7881 37.224 72.0881 37.728 72.6401 38.112C73.2161 38.496 73.9601 38.688 74.8721 38.688H76.4561C77.5601 38.688 78.3881 38.472 78.9401 38.04C79.4921 37.608 79.7681 37.02 79.7681 36.276C79.7681 35.58 79.5161 35.04 79.0121 34.656C78.5321 34.248 77.7761 33.984 76.7441 33.864L74.2961 33.504C72.0401 33.192 70.3841 32.592 69.3281 31.704C68.2721 30.816 67.7441 29.484 67.7441 27.708C67.7441 25.86 68.3681 24.432 69.6161 23.424C70.8641 22.392 72.7001 21.876 75.1241 21.876H76.4921C78.7001 21.876 80.4641 22.368 81.7841 23.352C83.1041 24.336 83.8121 25.656 83.9081 27.312H79.4081C79.3361 26.784 79.0361 26.352 78.5081 26.016C78.0041 25.68 77.3321 25.512 76.4921 25.512H75.1241C74.0921 25.512 73.3361 25.704 72.8561 26.088C72.4001 26.448 72.1721 26.988 72.1721 27.708C72.1721 28.38 72.3761 28.884 72.7841 29.22C73.1921 29.532 73.8521 29.76 74.7641 29.904L77.3201 30.264C79.6721 30.6 81.4001 31.236 82.5041 32.172C83.6321 33.084 84.1961 34.44 84.1961 36.24C84.1961 38.16 83.5361 39.66 82.2161 40.74C80.9201 41.796 79.0001 42.324 76.4561 42.324H74.8721ZM99.3741 42C97.4781 42 95.9901 41.472 94.9101 40.416C93.8541 39.36 93.3261 37.908 93.3261 36.06V26.268H87.9621V22.2H93.3261V16.62H97.8621V22.2H105.458V26.268H97.8621V36.06C97.8621 37.308 98.4741 37.932 99.6981 37.932H105.098V42H99.3741ZM115.38 42V28.464H109.944V24.396H115.38V21.408C115.38 19.68 115.956 18.3 117.108 17.268C118.26 16.236 119.784 15.72 121.68 15.72H127.476V19.68H121.788C121.212 19.68 120.744 19.848 120.384 20.184C120.048 20.496 119.88 20.928 119.88 21.48V24.396H127.476V28.464H119.88V42H115.38ZM143.41 42C142.114 42 140.974 41.736 139.99 41.208C139.03 40.68 138.274 39.936 137.722 38.976C137.17 37.992 136.894 36.864 136.894 35.592V19.788H130.558V15.72H141.394V35.592C141.394 36.312 141.598 36.888 142.006 37.32C142.438 37.728 143.014 37.932 143.734 37.932H149.71V42H143.41ZM159.776 42.36C157.736 42.36 156.128 41.82 154.952 40.74C153.776 39.66 153.188 38.208 153.188 36.384C153.188 34.44 153.836 32.94 155.132 31.884C156.428 30.828 158.264 30.3 160.64 30.3H165.572V28.608C165.572 27.648 165.26 26.904 164.636 26.376C164.012 25.824 163.16 25.548 162.08 25.548C161.096 25.548 160.28 25.764 159.632 26.196C158.984 26.628 158.6 27.216 158.48 27.96H154.088C154.304 26.088 155.144 24.6 156.608 23.496C158.072 22.392 159.944 21.84 162.224 21.84C164.648 21.84 166.556 22.452 167.948 23.676C169.364 24.876 170.072 26.508 170.072 28.572V42H165.716V38.544H164.996L165.716 37.572C165.716 39.036 165.176 40.2 164.096 41.064C163.016 41.928 161.576 42.36 159.776 42.36ZM161.252 38.976C162.524 38.976 163.556 38.652 164.348 38.004C165.164 37.356 165.572 36.516 165.572 35.484V33.072H160.712C159.8 33.072 159.068 33.336 158.516 33.864C157.964 34.392 157.688 35.088 157.688 35.952C157.688 36.888 158 37.632 158.624 38.184C159.272 38.712 160.148 38.976 161.252 38.976ZM174.63 42V22.2H178.302V24.864H179.058L178.446 25.512C178.446 24.408 178.758 23.52 179.382 22.848C180.006 22.176 180.81 21.84 181.794 21.84C182.85 21.84 183.666 22.272 184.242 23.136C184.842 24 185.142 25.164 185.142 26.628L184.35 24.864H185.574L185.106 25.512C185.106 24.408 185.418 23.52 186.042 22.848C186.666 22.176 187.494 21.84 188.526 21.84C189.75 21.84 190.722 22.296 191.442 23.208C192.162 24.12 192.522 25.356 192.522 26.916V42H188.562V27.096C188.562 26.448 188.418 25.944 188.13 25.584C187.842 25.2 187.422 25.008 186.87 25.008C186.342 25.008 185.922 25.188 185.61 25.548C185.322 25.908 185.178 26.424 185.178 27.096V42H181.938V27.096C181.938 26.424 181.794 25.908 181.506 25.548C181.218 25.188 180.798 25.008 180.246 25.008C179.694 25.008 179.274 25.188 178.986 25.548C178.722 25.908 178.59 26.424 178.59 27.096V42H174.63ZM205.18 42.36C203.5 42.36 202.036 42.036 200.788 41.388C199.54 40.74 198.568 39.84 197.872 38.688C197.2 37.512 196.864 36.144 196.864 34.584V29.616C196.864 28.056 197.2 26.7 197.872 25.548C198.568 24.372 199.54 23.46 200.788 22.812C202.036 22.164 203.5 21.84 205.18 21.84C206.836 21.84 208.276 22.164 209.5 22.812C210.748 23.46 211.708 24.372 212.38 25.548C213.076 26.7 213.424 28.056 213.424 29.616V33.18H201.22V34.584C201.22 35.976 201.556 37.032 202.228 37.752C202.9 38.448 203.896 38.796 205.216 38.796C206.224 38.796 207.04 38.628 207.664 38.292C208.288 37.932 208.684 37.416 208.852 36.744H213.28C212.944 38.448 212.032 39.816 210.544 40.848C209.08 41.856 207.292 42.36 205.18 42.36ZM209.068 30.66V29.58C209.068 28.212 208.744 27.168 208.096 26.448C207.448 25.704 206.476 25.332 205.18 25.332C203.884 25.332 202.9 25.704 202.228 26.448C201.556 27.192 201.22 28.248 201.22 29.616V30.372L209.392 30.3L209.068 30.66Z" fill="url(#paint0_linear_5_19)"/>
<path d="M259.876 1.94293C259.743 1.94983 259.613 1.9884 259.497 2.05545C259.381 2.1225 259.283 2.2161 259.211 2.32855C257.093 5.6149 256.813 9.52594 258.565 12.6151L258.568 12.62L265.369 24.4028C266.757 26.8063 266.898 29.6778 265.926 32.3015L260.191 22.366C260.117 22.2376 260.01 22.131 259.882 22.0569C259.753 21.9828 259.608 21.9439 259.459 21.9441H259.934L254.684 12.8524C254.609 12.7238 254.503 12.6171 254.374 12.5431C254.245 12.469 254.1 12.4302 253.951 12.4305C253.803 12.4308 253.657 12.4703 253.529 12.545C253.4 12.6196 253.294 12.7268 253.22 12.8557C251.36 16.1189 251.279 20.0079 252.894 23.2773C252.903 23.4056 252.941 23.5302 253.006 23.6415L259.382 34.6844C260.721 37.003 260.821 39.8008 259.819 42.377L250.027 25.4163C249.777 24.9847 249.578 24.5161 249.4 24.0189C249.328 23.817 249.182 23.6502 248.991 23.5522C248.801 23.4543 248.58 23.4326 248.374 23.4915C244.64 24.5582 241.48 26.1208 239.208 28.0695C236.935 30.0182 235.531 32.4065 235.531 35.0156C235.531 38.8343 238.475 42.1209 242.906 44.4155C247.337 46.7101 253.358 48.0938 260 48.0938C266.642 48.0938 272.663 46.7101 277.094 44.4155C281.525 42.1209 284.469 38.8343 284.469 35.0156C284.469 32.335 282.989 29.8886 280.604 27.908C278.345 26.0314 275.207 24.5583 271.57 23.5212C271.519 22.0719 271.205 20.6444 270.469 19.3716V19.37L260.651 2.36316C260.573 2.22855 260.46 2.11807 260.323 2.04391C260.186 1.96976 260.032 1.93481 259.876 1.94293ZM259.98 4.57635L269.009 20.2137V20.2154C269.685 21.3847 269.989 22.7165 269.947 24.1078C269.941 24.298 270 24.4845 270.114 24.6371C270.228 24.7896 270.389 24.8993 270.573 24.9483C274.293 25.9392 277.399 27.4391 279.527 29.2066C281.655 30.9741 282.781 32.9535 282.781 35.0156C282.781 37.9537 280.438 40.7841 276.318 42.9175C272.198 45.051 266.406 46.4062 260 46.4062C253.594 46.4062 247.802 45.051 243.682 42.9175C239.562 40.7841 237.219 37.9537 237.219 35.0156C237.219 33.0086 238.286 31.0828 240.307 29.35C242.187 27.7375 244.936 26.3768 248.164 25.3718C248.294 25.6694 248.395 25.9683 248.565 26.2617L259.196 44.6693C259.27 44.7968 259.375 44.9028 259.503 44.9767C259.63 45.0505 259.775 45.0898 259.922 45.0904C260.07 45.0911 260.215 45.0532 260.343 44.9805C260.471 44.9077 260.578 44.8027 260.653 44.6759C262.66 41.2609 262.749 37.1412 260.844 33.8406H260.842L254.578 22.9922C254.562 22.931 254.539 22.8718 254.509 22.8159C253.246 20.4614 253.137 17.6992 254.072 15.1677L258.716 23.2097C258.787 23.3323 258.887 23.4351 259.008 23.5088C259.128 23.5825 259.266 23.6248 259.407 23.6316H258.973L265.318 34.6218C265.392 34.7502 265.499 34.8568 265.628 34.9307C265.757 35.0046 265.903 35.0433 266.051 35.0428C266.199 35.0423 266.345 35.0026 266.473 34.9279C266.602 34.8531 266.708 34.7458 266.781 34.6168C268.76 31.1455 268.787 26.9473 266.831 23.5591L260.031 11.7828C258.835 9.67233 258.857 7.05461 259.98 4.57635Z" fill="url(#paint1_linear_5_19)"/>
<defs>
<linearGradient id="paint0_linear_5_19" x1="0" y1="29" x2="216" y2="29" gradientUnits="userSpaceOnUse">
<stop stop-color="#FF0F13"/>
<stop offset="1" stop-color="#F89B29"/>
</linearGradient>
<linearGradient id="paint1_linear_5_19" x1="235.531" y1="25.0178" x2="284.469" y2="25.0178" gradientUnits="userSpaceOnUse">
<stop stop-color="#FF0F13"/>
<stop offset="1" stop-color="#F89B29"/>
</linearGradient>
</defs>
</svg>
